<svg width="465" height="470" viewBox="0 0 465 470" fill="none" xmlns="http://www.w3.org/2000/svg">
<g clip-path="url(#clip0)">
<path d="M53.5116 306.399V100.84L238.708 0L423.905 100.84V306.399L238.708 407.239L53.5116 306.399Z" fill="white"/>
<path d="M53.5114 306.399V100.84L238.708 201.68V407.239L53.5114 306.399Z" fill="#5371DD"/>
<path d="M423.904 306.399L238.708 407.239V201.68L423.904 100.84V306.399Z" fill="#837BFF"/>
<path d="M6 33.9365L191.197 134.776" stroke="#53DDD5" stroke-width="3"/>
<path d="M6 23.2708V44.6023" stroke="#53DDD5" stroke-width="3"/>
<path d="M191.196 124.111V145.442" stroke="#53DDD5" stroke-width="3"/>
<path d="M386.089 356.819L200.893 457.659" stroke="#53DDD5" stroke-width="3"/>
<path d="M386.089 346.153V367.484" stroke="#53DDD5" stroke-width="3"/>
<path d="M200.893 446.993V468.324" stroke="#53DDD5" stroke-width="3"/>
<path d="M444.467 47.5112L463.859 36.8454" stroke="#53DDD5" stroke-width="3"/>
<path d="M445.437 254.039L464.829 243.374" stroke="#53DDD5" stroke-width="3"/>
<path d="M455.033 42.6631L455.033 248.706" stroke="#53DDD5" stroke-width="3"/>
</g>
<defs>
<clipPath id="clip0">
<rect width="465" height="470" fill="white"/>
</clipPath>
</defs>
</svg>
