<svg width="176" height="176" viewBox="0 0 176 176" fill="none" xmlns="http://www.w3.org/2000/svg">
<path d="M96.6194 125.287L93.4931 126.852C100.227 138.251 110.087 147.862 121.63 154.791L123.554 151.885C112.492 145.403 103.113 136.239 96.6194 125.287Z" fill="#5371DD"/>
<path d="M93.9741 76.3373H90.3667C90.3667 136.016 130.528 157.25 164.918 157.25V153.897C132.212 153.897 93.9741 133.557 93.9741 76.3373Z" fill="#5371DD"/>
<path d="M103.353 76.3373H99.7457C99.7457 129.757 134.857 148.533 164.918 148.533V145.18C136.541 145.18 103.353 127.075 103.353 76.3373Z" fill="#5371DD"/>
<path d="M112.732 76.3373H109.125C109.125 123.275 137.984 140.039 164.918 140.039V136.686C152.653 136.463 112.732 132.216 112.732 76.3373Z" fill="#5371DD"/>
<path d="M52.3693 151.885L54.2932 154.791C66.0772 148.086 75.6968 138.474 82.4305 126.852L79.3041 125.287C72.8109 136.239 63.4318 145.403 52.3693 151.885Z" fill="#5371DD"/>
<path d="M11.0052 153.897V157.25C45.3952 157.25 85.5569 136.016 85.5569 76.3373H81.9496C81.9496 133.557 43.7118 153.897 11.0052 153.897Z" fill="#5371DD"/>
<path d="M76.1779 76.3373H72.5705C72.5705 127.299 39.383 145.18 11.0052 145.18V148.533C41.0664 148.533 76.1779 129.757 76.1779 76.3373Z" fill="#5371DD"/>
<path d="M66.7988 76.3373H63.1914C63.1914 132.216 23.2702 136.686 11.0052 136.686V140.039C37.9401 139.816 66.7988 123.275 66.7988 76.3373Z" fill="#5371DD"/>
<path d="M101.189 51.0802L116.58 37.8928L95.898 35.6577L87.2404 18L78.5828 35.6577L57.9007 37.8928L73.292 51.0802L69.2037 70.0789L87.2404 60.4678L105.277 70.0789L101.189 51.0802ZM87.2404 56.668L74.2539 63.597L77.1398 49.9626L66.0773 40.575L80.9877 39.0104L87.2404 26.27L93.4931 39.0104L108.403 40.575L97.3409 49.9626L100.227 63.597L87.2404 56.668Z" fill="#5371DD"/>
</svg>
