<svg width="176" height="176" viewBox="0 0 176 176" fill="none" xmlns="http://www.w3.org/2000/svg">
<path d="M142.894 105.189C142.65 105.189 142.162 105.189 141.918 105.189C142.406 105.189 142.65 105.189 142.894 105.189C143.626 105.189 144.114 105.189 144.846 105.189V71.3201C152.655 70.3384 158.756 63.7119 158.756 55.8582C158.756 47.2683 151.679 40.1509 143.138 40.1509C138.014 40.1509 133.377 42.6052 130.449 46.7774C130.449 46.7774 130.449 46.7774 130.449 46.532L101.654 29.843C102.386 27.8796 102.874 25.9162 102.874 23.7073C102.874 15.1174 95.7969 8 87.256 8C78.715 8 71.6382 15.1174 71.6382 23.7073C71.6382 25.9162 72.1263 28.125 73.1024 30.0884L44.3072 46.7774C44.3072 47.0229 44.5512 47.2683 44.5512 47.5137C41.6229 43.096 36.7423 40.6418 31.6177 40.6418C23.0768 40.6418 16 47.7591 16 56.3491C16 64.4482 22.1007 71.0747 29.9096 71.811V105.68C22.1007 106.662 16 113.288 16 121.387C16 129.977 23.0768 137.095 31.6177 137.095C36.7423 137.095 41.3788 134.64 44.3072 130.468L73.1024 147.157C72.3703 149.12 71.8823 151.084 71.8823 153.293C71.8823 161.883 78.959 169 87.5 169C96.0409 169 103.118 161.883 103.118 153.293C103.118 151.084 102.63 149.12 101.898 147.157L130.693 130.468C133.621 134.64 138.258 137.095 143.382 137.095C151.923 137.095 159 129.977 159 121.387C158.512 112.306 151.435 105.189 142.894 105.189ZM130.693 111.325L115.319 102.489C117.515 98.0716 118.736 93.4085 118.736 88.2546C118.736 83.1006 117.515 78.4375 115.319 74.0198L130.449 65.1845C132.889 68.6204 136.794 70.8293 140.942 71.3201V105.189C137.038 105.925 133.133 108.134 130.693 111.325ZM33.57 105.434L33.3259 71.5656H33.57C37.7184 71.0747 41.6229 68.6204 44.0631 65.4299L59.1928 74.2652C56.9966 78.6829 55.7765 83.346 55.7765 88.5C55.7765 93.654 56.9966 98.3171 59.1928 102.735L43.8191 111.57C41.3788 108.134 37.7184 105.925 33.57 105.434ZM87.256 116.233C83.3515 116.233 79.2031 110.098 77.2509 100.28H97.2611C96.773 103.471 95.7969 106.171 94.8208 108.87C92.6246 113.288 89.9403 116.233 87.256 116.233ZM76.5188 96.3537C76.2747 93.8994 76.0307 91.1997 76.0307 88.2546C76.0307 85.3094 76.2747 82.6098 76.5188 80.1555H97.7491C97.9932 82.6098 98.2372 85.3094 98.2372 88.2546C98.2372 90.9543 97.9932 93.8994 97.7491 96.3537H76.5188ZM59.4369 88.2546C59.4369 85.5549 59.9249 82.6098 60.657 80.1555H72.8584C72.6143 82.8552 72.3703 85.5549 72.3703 88.2546C72.3703 91.1997 72.6143 93.8994 72.8584 96.3537H60.657C59.9249 93.8994 59.4369 91.1997 59.4369 88.2546ZM87.256 60.2759C91.1604 60.2759 95.3089 66.4116 97.2611 76.2287H77.2509C79.2031 66.657 83.3515 60.2759 87.256 60.2759ZM101.654 80.1555H113.855C114.587 82.8552 115.075 85.5549 115.075 88.2546C115.075 90.9543 114.587 93.8994 113.855 96.3537H101.654C101.898 93.654 102.142 90.9543 102.142 88.2546C102.142 85.3094 101.898 82.6098 101.654 80.1555ZM112.391 76.4741H101.166C99.9454 70.3384 97.9932 65.1845 95.3089 61.5031C102.874 63.7119 108.974 69.3567 112.391 76.4741ZM73.3464 76.4741H62.1212C63.5853 73.529 65.2935 70.8293 67.4898 68.6204C70.9061 65.1845 74.8106 62.9756 79.2031 61.5031C76.5188 64.939 74.5665 70.093 73.3464 76.4741ZM62.1212 100.035H73.3464C74.5665 106.171 76.5188 111.325 79.2031 115.006C71.6382 112.797 65.5375 107.152 62.1212 100.035ZM98.2372 110.098C99.4573 107.152 100.433 103.716 101.166 100.035H112.391C110.927 102.98 109.218 105.68 107.022 107.889C103.85 111.079 99.7014 113.534 95.5529 115.006C96.285 113.534 97.2611 112.061 98.2372 110.098ZM132.645 49.968C134.841 46.2866 138.746 43.8323 142.894 43.8323C149.483 43.8323 154.852 49.2317 154.852 55.8582C154.852 62.4848 149.483 67.8841 142.894 67.8841C136.305 67.8841 130.937 62.4848 130.937 55.8582C130.937 53.6494 131.425 51.686 132.645 49.968ZM128.497 49.7226C127.765 51.686 127.276 53.6494 127.276 55.8582C127.276 58.0671 127.765 60.2759 128.497 61.9939L113.367 70.8293C107.998 62.7302 99.2133 57.3308 88.9642 56.5945V38.9238C93.1126 38.4329 97.0171 36.2241 99.7014 32.7881L128.497 49.7226ZM87.256 11.6814C93.8447 11.6814 99.2133 17.0808 99.2133 23.7073C99.2133 25.9162 98.7253 27.8796 97.5051 29.5976C95.3089 33.279 91.4044 35.4878 87.256 35.4878C83.1075 35.4878 78.959 33.279 77.0068 29.3521C76.0307 27.6341 75.2986 25.4253 75.2986 23.4619C75.2986 16.8354 80.6672 11.6814 87.256 11.6814ZM74.8106 33.0335C74.5666 32.7881 74.5666 32.5427 74.3225 32.2973C76.7628 36.2241 80.9113 38.6784 85.5478 39.1692V56.8399C77.7389 57.3308 70.6621 60.5213 65.0495 65.9207C63.5853 67.3933 62.1212 69.1113 61.1451 70.8293L46.0154 61.9939C46.7474 60.0305 47.2355 58.0671 47.2355 55.8582C47.2355 53.6494 46.7474 51.686 46.0154 49.7226L74.8106 33.0335ZM19.6604 55.8582C19.6604 49.2317 25.029 43.8323 31.6177 43.8323C36.0102 43.8323 39.9147 46.0412 42.1109 49.968C43.087 51.686 43.5751 53.8948 43.5751 55.8582C43.5751 62.4848 38.2065 67.8841 31.6177 67.8841C25.029 67.8841 19.6604 62.4848 19.6604 55.8582ZM42.1109 126.787C39.9147 130.713 36.0102 132.922 31.6177 132.922C25.029 132.922 19.6604 127.523 19.6604 120.896C19.6604 114.27 25.029 108.87 31.6177 108.87C38.2065 108.87 43.5751 114.27 43.5751 120.896C43.5751 123.105 43.087 125.069 42.1109 126.787ZM46.0154 126.787C46.7474 124.823 47.2355 122.86 47.2355 120.896C47.2355 118.687 46.7474 116.479 45.7713 114.515L61.1451 105.68C66.5137 113.779 75.2986 119.178 85.5478 119.915V137.585C81.1553 138.076 77.0068 140.53 74.5666 144.457C74.5666 144.212 74.8106 143.966 74.8106 143.966L46.0154 126.787ZM87.256 165.073C80.6672 165.073 75.2986 159.674 75.2986 153.047C75.2986 150.838 75.7867 148.875 77.0068 147.157C79.2031 143.476 83.1075 141.267 87.256 141.267C91.4044 141.267 95.5529 143.476 97.5051 147.402C98.4812 149.12 99.2133 151.329 99.2133 153.293C99.2133 159.674 93.8447 165.073 87.256 165.073ZM99.7014 143.476C97.0171 140.04 93.3567 137.831 88.9642 137.34V119.669C96.773 119.178 103.85 115.988 109.462 110.588C110.927 109.116 112.391 107.398 113.367 105.68L128.497 114.515C127.52 116.479 127.032 118.687 127.032 120.896C127.032 122.86 127.52 125.069 128.253 126.787L99.7014 143.476ZM142.894 132.922C138.502 132.922 134.597 130.468 132.401 126.541C131.425 124.823 130.937 122.86 130.937 120.896C130.937 114.27 136.305 108.87 142.894 108.87C149.483 108.87 154.852 114.27 154.852 120.896C154.852 127.523 149.483 132.922 142.894 132.922Z" fill="#5371DD"/>
</svg>
