<svg width="176" height="176" viewBox="0 0 176 176" fill="none" xmlns="http://www.w3.org/2000/svg">
<path d="M142.046 87.7556V31.0006H126.791V24H123.039V31.0006H106.534V24H102.782V31.0006H86.2769V24H82.5256V31.0006H66.02V24H62.2687V31.0006H45.7631V24H42.0119V31.0006H26.0064V24H22.2552V31.0006H7V127.509H80.0248V127.759C81.2752 132.509 85.7767 136.01 90.7784 136.01H97.7808C97.2806 138.26 97.2806 140.26 98.0308 142.51C99.0312 146.011 101.282 149.011 104.533 150.761C106.534 152.011 109.035 152.511 111.285 152.511C112.536 152.511 113.786 152.261 115.037 152.011C122.039 150.011 126.29 143.01 124.79 136.01H147.047C147.298 136.01 147.798 136.01 148.048 136.01C148.548 136.01 149.048 136.01 149.298 135.76C151.549 135.26 154.05 133.01 154.55 125.509C154.8 120.508 154.05 114.008 152.299 107.507C150.299 100.257 146.547 91.7559 142.046 87.7556ZM22.2552 34.7509V38.0012H26.0064V34.7509H42.512V38.0012H46.2633V34.7509H62.7689V38.0012H66.5202V34.7509H83.0258V38.0012H86.777V34.7509H103.283V38.0012H107.034V34.7509H123.539V38.0012H127.291V34.7509H138.795V45.0018H11.2514V34.7509H22.2552ZM79.7747 123.759H10.7513V49.0022H138.294V85.5054C137.794 85.2553 137.294 85.2553 136.544 85.2553C136.044 85.2553 135.544 85.2553 135.293 85.5054C134.543 85.7554 134.043 86.0054 133.293 86.7555L129.291 89.0057H96.5303V108.507L91.2786 111.508V88.7556H57.7672V115.758H84.2762C81.7753 117.758 80.0248 120.508 79.7747 123.759ZM123.039 92.756L100.282 106.257V92.756H123.039ZM87.5273 112.008H61.5185V92.506H87.5273V112.008ZM83.776 126.759C83.0258 123.509 84.2762 120.258 87.0271 118.508L130.542 92.756C130.292 93.7561 130.292 94.5061 130.042 95.7563C129.792 100.757 130.542 107.257 132.292 113.758C134.293 120.758 137.544 128.259 141.296 132.759L90.7784 132.509C87.5273 132.259 84.5263 130.009 83.776 126.759ZM120.789 136.26C122.289 141.51 119.038 147.011 113.786 148.511C111.285 149.261 108.534 148.761 106.284 147.511C104.033 146.261 102.282 144.01 101.532 141.51C101.032 139.76 101.032 137.76 101.532 136.01L120.789 136.26C120.789 136.26 120.789 136.01 120.789 136.26ZM150.799 125.759C150.549 130.259 149.298 132.009 148.298 132.509H147.047C144.046 131.509 138.795 124.509 135.544 112.508C133.793 106.507 133.043 100.507 133.543 95.7563C133.793 92.256 134.543 90.2558 135.293 89.5057L136.294 89.0057C136.294 89.0057 136.294 89.0057 136.544 89.0057C139.295 89.0057 145.047 96.2563 148.548 109.007C150.549 115.008 151.299 121.008 150.799 125.759Z" fill="#5371DD"/>
<path d="M168.145 101.904L158.012 104.668L158.999 108.286L169.132 105.522L168.145 101.904Z" fill="#5371DD"/>
<path d="M160.88 115.805L159.019 119.061L168.139 124.269L170 121.013L160.88 115.805Z" fill="#5371DD"/>
<path d="M157.781 86.0924L152.572 95.2114L155.83 97.0712L161.038 87.9522L157.781 86.0924Z" fill="#5371DD"/>
<path d="M19.0033 84.0048H52.5146V57.0024H19.0033V84.0048ZM22.7545 60.7528H48.7633V80.2545H22.7545V60.7528Z" fill="#5371DD"/>
<path d="M91.2776 57.0024H57.7663V84.0048H91.2776V57.0024ZM87.5264 80.2545H61.5176V60.7528H87.5264V80.2545Z" fill="#5371DD"/>
<path d="M130.293 57.0024H96.5314V84.0048H130.043V57.0024H130.293ZM126.542 80.2545H100.283V60.7528H126.292V80.2545H126.542Z" fill="#5371DD"/>
<path d="M19.0033 115.758H52.5146V89.0056H19.0033V115.758ZM22.7545 92.7559H48.7633V112.008H22.7545V92.7559Z" fill="#5371DD"/>
</svg>
