<svg id="Layer_1" data-name="Layer 1" xmlns="http://www.w3.org/2000/svg" viewBox="0 0 500.90035 31.89902"><defs><style>.cls-1{fill:#fff;}.cls-2{fill:#2998d4;}</style></defs><title>logo_lf_projects_horizontal</title><path class="cls-1" d="M29.49294,2.73885H45.64635V4.39424H38.5394V23.11632H36.59921V4.39424H29.49294Z"/><path class="cls-1" d="M47.56121,2.73885H49.5014v8.84758H61.6026V2.73885h1.94019V23.11632H61.6026V13.24148H49.5014v9.87484H47.56121Z"/><path class="cls-1" d="M67.65594,2.73885H81.72609V4.39424H69.59682v7.36334H80.9559V13.413H69.59682v8.048H81.86917v1.65539H67.65594Z"/><polygon class="cls-1" points="7.932 19.048 7.932 10.897 3.848 10.897 3.848 23.125 16.081 23.125 16.081 19.048 7.932 19.048"/><polygon class="cls-1" points="24.23 2.739 3.851 2.739 3.851 8.854 7.926 8.854 7.926 6.833 20.156 6.833 20.156 19.048 18.12 19.048 18.12 23.125 24.23 23.125 24.23 2.739"/><path class="cls-1" d="M189.51623,2.743h12.92821v1.6554h-10.988v7.36334h9.76051v1.65539h-9.76051v9.70335h-1.94019Z"/><path class="cls-1" d="M213.377,2.31516c6.39291,0,9.58936,5.023,9.58936,10.61662,0,5.594-3.19645,10.617-9.58936,10.617-6.42166,0-9.61811-5.023-9.61811-10.617C203.75889,7.33816,206.95534,2.31516,213.377,2.31516Zm0,19.57819c5.36531,0,7.64849-4.5092,7.64849-8.96157,0-4.452-2.28318-8.96157-7.64849-8.96157-5.39405,0-7.67723,4.50954-7.67723,8.96157C205.69977,17.38415,207.98295,21.89335,213.377,21.89335Z"/><path class="cls-1" d="M225.79586,2.743h1.94019V15.3577c0,4.70911,2.19761,6.53565,5.965,6.53565,3.79617,0,5.99309-1.82654,5.99309-6.53565V2.743h1.94088V15.78593c0,4.1953-2.25443,7.76281-7.934,7.76281-5.622,0-7.90522-3.56751-7.90522-7.76281Z"/><path class="cls-1" d="M245.51953,2.743h2.16885l11.87254,17.23819h.05683V2.743h1.94087V23.12052h-2.16885L247.51723,5.88233h-.05682V23.12052h-1.94088Z"/><path class="cls-1" d="M265.6437,2.743h7.04876c6.16494.14275,9.36139,3.45353,9.36139,10.18874,0,6.73556-3.19645,10.046-9.36139,10.18874H265.6437Zm1.94019,18.72209h4.13848c5.85069,0,8.3906-2.42593,8.3906-8.53335s-2.53991-8.53334-8.3906-8.53334h-4.13848Z"/><path class="cls-1" d="M291.16124,2.743h2.16885l7.99148,20.37748h-2.08328l-2.48309-6.33574h-9.27512l-2.455,6.33574h-2.08327Zm-3.08212,12.38635h8.01954L292.16009,4.68392Z"/><path class="cls-1" d="M299.04112,2.743h16.15342v1.6554h-7.10627V23.12052H306.1474V4.39844h-7.10628Z"/><path class="cls-1" d="M317.2518,2.743h1.94088V23.12052H317.2518Z"/><path class="cls-1" d="M331.97849,2.31516c6.3929,0,9.58936,5.023,9.58936,10.61662,0,5.594-3.19646,10.617-9.58936,10.617-6.42166,0-9.61812-5.023-9.61812-10.617C322.36037,7.33816,325.55683,2.31516,331.97849,2.31516Zm0,19.57819c5.3653,0,7.64848-4.5092,7.64848-8.96157,0-4.452-2.28318-8.96157-7.64848-8.96157-5.39406,0-7.67724,4.50954-7.67724,8.96157C324.30125,17.38415,326.58443,21.89335,331.97849,21.89335Z"/><path class="cls-1" d="M344.5685,2.743h2.16885l11.87254,17.23819h.05682V2.743h1.94088V23.12052h-2.16885L346.5662,5.88233h-.05682V23.12052H344.5685Z"/><path class="cls-1" d="M87.24425,2.73885H93.4959V17.82767h8.97938v5.20014h-15.231Z"/><path class="cls-1" d="M106.56531,2.73885H112.817v20.289h-6.25166Z"/><path class="cls-1" d="M117.4766,2.73885h6.39328l5.91059,10.85483h.057V2.73885h5.9102v20.289h-6.08093L123.44384,11.9456h-.057V23.02781H117.4766Z"/><path class="cls-1" d="M158.84763,15.18512c0,5.65469-2.98343,8.32577-9.23508,8.32577-6.25127,0-9.2634-2.67108-9.2634-8.32577V2.73885h6.25126V13.79273c0,2.0458-.02833,4.66022,3.04046,4.66022,2.95549,0,2.95549-2.61442,2.95549-4.66022V2.73885h6.25127Z"/><path class="cls-1" d="M168.7916,12.22982l-6.67769-9.491h7.3311l3.06879,5.51268,3.01214-5.51268h6.93339l-6.507,9.54781,7.24574,10.74115H175.668l-3.4665-6.0526-3.58057,6.0526h-7.16077Z"/><path class="cls-2" d="M367.48659,3.005h5.60321A7.45024,7.45024,0,0,1,378.01573,4.445a4.86923,4.86923,0,0,1,1.71008,3.92959,4.96788,4.96788,0,0,1-1.72448,3.98808,7.61037,7.61037,0,0,1-5.05733,1.46977h-3.88548v9.50265h-1.57193Zm1.57193,1.30956V12.522h3.78377a6.01476,6.01476,0,0,0,3.87108-1.07645,3.7,3.7,0,0,0,1.32441-3.04214,3.72147,3.72147,0,0,0-1.29516-2.98274,5.55863,5.55863,0,0,0-3.71132-1.10615Z"/><path class="cls-2" d="M382.70945,3.005h5.2099a7.72564,7.72564,0,0,1,5.00648,1.41846,4.69959,4.69959,0,0,1,1.73168,3.83508q0,3.52232-3.87108,4.94753a9.13962,9.13962,0,0,1,2.70688,3.09975l4.59876,7.02933h-1.86039L392.69,17.763a13.61521,13.61521,0,0,0-2.764-3.48677,5.04378,5.04378,0,0,0-2.89544-.69123h-2.74962v9.75016h-1.57148Zm1.57148,1.30956v7.96087h3.3765a6.386,6.386,0,0,0,3.93679-1.04135,3.492,3.492,0,0,0,1.36041-2.94674,3.46153,3.46153,0,0,0-1.38246-2.92513,6.48183,6.48183,0,0,0-3.97279-1.04765Z"/><path class="cls-2" d="M408.64731,2.743A10.58487,10.58487,0,0,1,416.295,5.77709a9.9046,9.9046,0,0,1,3.1362,7.40014A9.89017,9.89017,0,0,1,416.295,20.563a11.11857,11.11857,0,0,1-15.26606,0,9.91167,9.91167,0,0,1-3.1218-7.38575,9.92619,9.92619,0,0,1,3.1218-7.40014A10.51646,10.51646,0,0,1,408.64731,2.743Zm.05851,19.39861a8.74112,8.74112,0,0,0,6.41054-2.59752,8.63427,8.63427,0,0,0,2.61238-6.3669,8.65083,8.65083,0,0,0-2.61238-6.3813,8.74112,8.74112,0,0,0-6.41054-2.59752,8.85663,8.85663,0,0,0-6.45466,2.59752,8.60088,8.60088,0,0,0-2.64117,6.3813,8.58454,8.58454,0,0,0,2.64117,6.3669A8.85663,8.85663,0,0,0,408.70582,22.14165Z"/><path class="cls-2" d="M424.94662,3.005V23.33511q0,3.36165-1.26591,4.64241a4.07383,4.07383,0,0,1-2.998,1.28076,9.20039,9.20039,0,0,1-.94594-.0576l-.14536-1.48507a4.08994,4.08994,0,0,0,.93155.117q2.852,0,2.85223-4.07539V3.005Z"/><path class="cls-2" d="M440.60645,3.005V4.31452h-9.51794V12.45h9.27043v1.324h-9.27043v8.25158h9.75061v1.30957H429.517V3.005Z"/><path class="cls-2" d="M461.62019,4.445V6.1623a15.38044,15.38044,0,0,0-7.24759-1.96389,8.5427,8.5427,0,0,0-6.33045,2.57592,8.778,8.778,0,0,0-2.54667,6.4317,8.6139,8.6139,0,0,0,2.56107,6.4182,8.93185,8.93185,0,0,0,6.53431,2.51742,15.57227,15.57227,0,0,0,7.23319-2.0809v1.63a15.31086,15.31086,0,0,1-7.20394,1.90629,10.7127,10.7127,0,0,1-7.735-2.97554A9.87083,9.87083,0,0,1,443.7926,13.206a9.87428,9.87428,0,0,1,3.1578-7.46585A10.55351,10.55351,0,0,1,454.4743,2.743,17.11288,17.11288,0,0,1,461.62019,4.445Z"/><path class="cls-2" d="M480.05845,3.005V4.31452h-7.62606V23.33511h-1.58632V4.31452h-7.62561V3.005Z"/><path class="cls-2" d="M492.10821,4.0238V5.75548a9.401,9.401,0,0,0-4.55511-1.55707,4.39622,4.39622,0,0,0-3.0633,1.11245,3.573,3.573,0,0,0-1.2299,2.75863,3.39434,3.39434,0,0,0,.72768,2.1241,7.022,7.022,0,0,0,3.04169,1.819,28.8534,28.8534,0,0,1,3.37651,1.45536,5.16435,5.16435,0,0,1,1.80458,1.68848,5.05217,5.05217,0,0,1,.74209,2.86664,5.22306,5.22306,0,0,1-1.71728,3.95838,5.88924,5.88924,0,0,1-4.191,1.61558,9.44,9.44,0,0,1-5.21034-1.77489V19.97345a9.19085,9.19085,0,0,0,5.123,2.1682,4.27888,4.27888,0,0,0,3.04844-1.171,3.93494,3.93494,0,0,0,.473-5.21124,7.03722,7.03722,0,0,0-3.12764-1.945,30.68483,30.68483,0,0,1-3.36841-1.45807,4.95944,4.95944,0,0,1-1.71863-1.57777,4.55666,4.55666,0,0,1-.70608-2.63982,4.998,4.998,0,0,1,1.71728-3.818,5.89144,5.89144,0,0,1,4.133-1.57778A9.65912,9.65912,0,0,1,492.10821,4.0238Z"/></svg>