<?xml version="1.0" encoding="utf-8"?>
<!-- Generator: Adobe Illustrator 19.2.1, SVG Export Plug-In . SVG Version: 6.00 Build 0)  -->
<svg version="1.1" id="layer" xmlns="http://www.w3.org/2000/svg" xmlns:xlink="http://www.w3.org/1999/xlink" x="0px" y="0px"
	 viewBox="0 0 652 652" style="enable-background:new 0 0 652 652;" xml:space="preserve">
<style type="text/css">
	.st0{fill:url(#SVGID_1_);}
	.st1{fill:url(#SVGID_2_);}
	.st2{fill:url(#SVGID_3_);}
	.st3{fill:url(#SVGID_4_);}
	.st4{fill:#515254;}
	.st5{fill:#FF5000;}
</style>
<linearGradient id="SVGID_1_" gradientUnits="userSpaceOnUse" x1="55.6533" y1="216.3502" x2="55.6533" y2="284.0519" gradientTransform="matrix(1 0 0 -1 0 652)">
	<stop  offset="0" style="stop-color:#FF7825"/>
	<stop  offset="0.15" style="stop-color:#F46822"/>
	<stop  offset="0.5" style="stop-color:#DF481C"/>
	<stop  offset="0.8" style="stop-color:#D23418"/>
	<stop  offset="1" style="stop-color:#CD2D17"/>
</linearGradient>
<path class="st0" d="M85.3,435.6L26,407.3l59.3-39.3V435.6z"/>
<linearGradient id="SVGID_2_" gradientUnits="userSpaceOnUse" x1="26" y1="317.8052" x2="140.235" y2="317.8052" gradientTransform="matrix(1 0 0 -1 0 652)">
	<stop  offset="0" style="stop-color:#FF7825"/>
	<stop  offset="0.32" style="stop-color:#F5601B"/>
	<stop  offset="0.75" style="stop-color:#EA4610"/>
	<stop  offset="1" style="stop-color:#E63C0C"/>
</linearGradient>
<path class="st1" d="M26,407.3l59.7-39.5l58.7-38.9L93.2,295l51.1,33.8v-67.7L93.2,295L26,339.6V407.3z"/>
<linearGradient id="SVGID_3_" gradientUnits="userSpaceOnUse" x1="26.4675" y1="396.0673" x2="144.31" y2="396.0673" gradientTransform="matrix(1 0 0 -1 0 652)">
	<stop  offset="0" style="stop-color:#E63C0C"/>
	<stop  offset="0.24" style="stop-color:#E8410E"/>
	<stop  offset="0.52" style="stop-color:#EE5014"/>
	<stop  offset="0.83" style="stop-color:#F8681E"/>
	<stop  offset="1" style="stop-color:#FF7825"/>
</linearGradient>
<path class="st2" d="M93.2,295l51.1-33.9l-66.7-44.2l-0.1-0.1l-51.1,33.9l0.2,0.1L93.2,295z"/>
<radialGradient id="SVGID_4_" cx="-158.0028" cy="606.4434" r="0.8332" gradientTransform="matrix(14.0198 0 0 -14.0198 2826.8745 8809.5703)" gradientUnits="userSpaceOnUse">
	<stop  offset="0" style="stop-color:#E63C0C"/>
	<stop  offset="1" style="stop-color:#CD2D17"/>
</radialGradient>
<path class="st3" d="M600.4,308.7l7,10.7l15.6-24.1h-14.7L600.4,308.7z"/>
<path class="st4" d="M198,295.3h7.2v9.3c2.2-3.3,5.3-6,8.9-7.7c3.8-1.9,8-2.9,12.3-2.9c8.6,0,15.8,2.9,21.4,8.6
	c5.6,5.7,8.5,12.9,8.5,21.4c0,8.3-2.8,15.4-8.4,21.1c-5.6,5.7-12.5,8.6-20.9,8.6c-4.3,0.1-8.6-0.8-12.5-2.7
	c-3.7-1.8-6.9-4.5-9.3-7.8v27.5H198V295.3z M205.2,323.4c0,6.5,2.1,12.1,6.4,16.7c4.3,4.6,9.3,6.9,15.1,6.9c5.9,0,11.1-2.2,15.4-6.6
	c4.3-4.4,6.5-9.7,6.5-16.1c0-6.6-2.1-12.2-6.4-16.7c-2-2.2-4.4-3.9-7.1-5.1c-2.7-1.2-5.6-1.8-8.6-1.7c-5.6,0-10.6,2.3-14.9,6.8
	C207.4,312.2,205.2,317.5,205.2,323.4z M272.7,323.7c0,6.4,2,11.7,6.1,16.1c4.1,4.4,9.2,6.5,15.3,6.5c6,0,11-2.2,15.1-6.5
	c4-4.3,6.1-9.7,6.1-16.2c0-6.6-2-12-6.1-16.2c-4.1-4.2-9.3-6.4-15.7-6.4c-5.6,0-10.5,2.2-14.6,6.5
	C274.8,312,272.7,317.3,272.7,323.7L272.7,323.7z M265.3,323.9c0-8.2,2.8-15.2,8.4-20.9c5.6-5.8,12.2-8.7,19.9-8.7
	c3.8-0.1,7.6,0.7,11.2,2.1c3.5,1.5,6.7,3.7,9.4,6.4c5.7,5.7,8.6,12.5,8.6,20.4c0,8.3-2.8,15.4-8.3,21.3c-5.6,5.9-12.3,8.8-20.3,8.8
	c-8.1,0-14.9-2.9-20.5-8.6c-2.7-2.7-4.8-6-6.3-9.5C265.9,331.5,265.2,327.7,265.3,323.9L265.3,323.9z M339.2,352.3h-7.3v-57h6.9v6.6
	c1.5-2.3,3.5-4.1,5.9-5.5c1.1-0.6,2.3-1.1,3.5-1.4c1.3-0.3,2.6-0.5,4-0.5l0,7.9c-4.6,0.4-7.9,1.8-9.9,4.1c-2,2.3-3,6.1-3,11.4V352.3
	z M371.1,352.3v-49.7h-10.8v-7.3h10.8v-18.5h7.3v18.5h10.8v7.3h-10.8v49.7H371.1z M433.6,319.1l-10,33.3H416l-19.8-57h13.4
	l10.1,32.5l10-32.6l8.1,0l9.9,32.5l10.2-32.5h13.3l-19.9,57h-7.5L433.6,319.1z M473.4,323.9c0-3.8,0.6-7.6,2-11.2
	c1.4-3.6,3.5-6.9,6.1-9.6c2.7-2.9,5.9-5.2,9.5-6.9c3.5-1.7,7.4-2.5,11.3-2.5c4,0,7.9,0.7,11.5,2.2c3.6,1.5,6.9,3.8,9.6,6.6
	c2.7,2.8,4.9,6.1,6.4,9.6c1.5,3.5,2.3,7.3,2.3,11.1c0,3.9-0.7,7.7-2.1,11.4c-1.3,3.6-3.3,6.8-5.9,9.6c-1.4,1.5-2.9,2.9-4.6,4.1
	c-1.6,1.2-3.4,2.3-5.2,3.1c-3.6,1.6-7.5,2.5-11.5,2.4c-4,0-7.9-0.7-11.5-2.2c-3.6-1.5-6.8-3.8-9.5-6.7c-2.6-2.8-4.8-6.1-6.2-9.7
	c-0.7-1.8-1.3-3.7-1.6-5.6C473.5,327.7,473.4,325.8,473.4,323.9L473.4,323.9z M486.3,323.8c0,4.8,1.4,9.1,4.8,12.6
	c1.5,1.6,3.3,2.9,5.4,3.8c2,0.9,4.2,1.3,6.4,1.2c2.2,0,4.3-0.4,6.3-1.2c2-0.9,3.8-2.2,5.3-3.8c3.3-3.5,4.7-7.8,4.7-12.6
	c0-4.8-1.4-9.1-4.7-12.6c-3.2-3.3-7.1-4.9-11.7-4.9c-2.2,0-4.4,0.4-6.4,1.3c-2,0.9-3.8,2.1-5.3,3.8
	C487.8,314.6,486.3,318.9,486.3,323.8L486.3,323.8z M552.4,299c1-1,2.2-1.9,3.4-2.6c2.4-1.3,5.2-2,8-2h1.4v13.1h-1.4
	c-1.7,0-3.4,0.3-4.9,0.9c-1.3,0.5-2.5,1.4-3.4,2.5c-2.1,2.5-2.5,6.8-2.5,9.9v31.6h-12.5v-57.1h12L552.4,299L552.4,299z M597.2,333.1
	l-12.3,19.3l-14.2,0l19.3-29.6l-17.1-27.4l14.3,0l36,57.1l-14.2,0L597.2,333.1z"/>
<path class="st5" d="M332.2,391.6h4.1V402h0.2c0.7-1.3,2.1-3.7,6.1-3.7c5.1,0,8.9,4,8.9,10.9c0,6.9-3.7,10.9-8.8,10.9
	c-3.9,0-5.4-2.4-6.1-3.7h-0.3v3.3h-4V391.6z M341.7,416.7c3.7,0,5.6-3.2,5.6-7.5c0-4.2-1.9-7.4-5.6-7.4c-3.6,0-5.5,2.9-5.5,7.4
	C336.2,413.6,338.2,416.7,341.7,416.7L341.7,416.7z M354.6,427.3l1-3.4c2.3,0.6,3.7,0.4,4.8-2.4l0.5-1.4l-7.7-21.4h4.4l5.4,16.4h0.2
	l5.4-16.4h4.4l-8.7,24c-1.2,3.3-3.4,5.1-6.8,5.1C356.4,427.7,355.5,427.6,354.6,427.3L354.6,427.3z M388.3,391.6h10.1
	c6.6,0,9.8,3.9,9.8,9.1c0,5.2-3.2,9.2-9.8,9.2h-5.8v9.9h-4.3V391.6z M398,406.2c4.2,0,5.9-2.4,5.9-5.6c0-3.2-1.7-5.5-5.9-5.5h-5.3
	v11L398,406.2z M425.5,398.6h4.1v21.2h-4.1v-3.7h-0.2c-1,2.3-3.1,3.9-6.3,3.9c-4.1,0-7-2.7-7-8v-13.4h4.1v13c0,2.9,1.8,4.7,4.3,4.7
	c2.3,0,5-1.7,5-5.3L425.5,398.6z M435,398.6h4v3.4h0.2c0.4-1.1,1.1-2.1,2.1-2.7c1-0.7,2.1-1,3.3-1c0.6,0,1.2,0,1.8,0.1v3.9
	c-0.7-0.2-1.4-0.2-2.1-0.2c-2.9,0-5.1,2-5.1,4.8v12.9H435L435,398.6z M448.4,409.3c0-6.5,3.9-11,9.8-11c4.8,0,9.4,3,9.4,10.6v1.5
	h-15c0.1,4.1,2.5,6.4,6,6.4c2.3,0,4.1-1,4.9-3l3.9,0.7c-0.9,3.4-4.2,5.7-8.8,5.7C452.2,420.2,448.4,415.9,448.4,409.3z M463.5,407.3
	c0-3.2-2.1-5.6-5.3-5.6c-3.3,0-5.5,2.6-5.7,5.6H463.5z M493.2,394.8c-3.5,0-5.7,1.8-5.7,4.2c0,2.7,2.9,3.7,5.1,4.3l2.8,0.7
	c3.6,0.9,8.1,2.9,8.1,7.9c0,4.8-3.8,8.3-10.4,8.3c-6.3,0-10.3-3.2-10.6-8.3h4.3c0.2,3.1,3,4.5,6.3,4.5c3.6,0,6.3-1.8,6.3-4.6
	c0-2.5-2.3-3.5-5.3-4.3l-3.3-0.9c-4.5-1.2-7.3-3.5-7.3-7.5c0-4.9,4.3-8.1,10-8.1c5.7,0,9.7,3.3,9.9,7.8H499
	C498.7,396.4,496.4,394.8,493.2,394.8z M518.1,401.9h-4.3v11.6c0,2.4,1.2,2.8,2.5,2.8c0.5,0,1-0.1,1.4-0.2l0.7,3.4
	c-0.9,0.3-1.8,0.4-2.7,0.4c-3.2,0.1-6.2-1.8-6.2-5.6v-12.5h-3.1v-3.3h3.1v-5.1h4.1v5.1h4.3L518.1,401.9z M520.5,409.3
	c0-6.6,3.9-10.9,9.9-10.9c6,0,9.9,4.4,9.9,10.9c0,6.6-3.9,10.9-9.9,10.9C524.4,420.2,520.5,415.8,520.5,409.3z M536.1,409.3
	c0-4-1.8-7.5-5.7-7.5c-3.9,0-5.7,3.4-5.7,7.5c0,4.1,1.8,7.5,5.7,7.5C534.3,416.8,536.1,413.3,536.1,409.3L536.1,409.3z M544.6,398.6
	h4v3.4h0.2c0.4-1.1,1.1-2.1,2.1-2.7c1-0.7,2.1-1,3.3-1c0.6,0,1.2,0,1.8,0.1v3.9c-0.7-0.2-1.4-0.2-2.2-0.2c-2.9,0-5.1,2-5.1,4.8v12.9
	h-4.1L544.6,398.6z M558.3,413.8c0-4.8,4.1-5.9,8.1-6.3c3.8-0.4,5.3-0.4,5.3-1.9v-0.1c0-2.4-1.4-3.8-4-3.8c-2.8,0-4.3,1.4-4.9,2.9
	l-3.9-0.9c1.4-3.9,4.9-5.4,8.7-5.4c3.4,0,8.2,1.2,8.2,7.4v14.1h-4v-2.9h-0.2c-0.8,1.6-2.8,3.4-6.3,3.4
	C561.4,420.2,558.3,418,558.3,413.8z M571.8,412.1v-2.7c-0.6,0.6-3.8,1-5.1,1.1c-2.4,0.3-4.3,1.1-4.3,3.3c0,2,1.7,3.1,4,3.1
	C569.8,416.9,571.8,414.6,571.8,412.1L571.8,412.1z M581,423.4l3.5-1.5c0.7,1.2,2.1,2.9,5.5,2.9c3.1,0,5.4-1.4,5.4-4.8v-4.2h-0.3
	c-0.7,1.4-2.2,3.5-6.1,3.5c-5,0-8.8-3.6-8.8-10.4c0-6.8,3.8-10.8,8.9-10.8c3.9,0,5.4,2.4,6.1,3.7h0.3v-3.4h4v21.6
	c0,5.4-4.2,7.9-9.5,7.9C584.9,428.2,582.1,425.9,581,423.4z M595.5,409.1c0-4.3-1.9-7.2-5.5-7.2c-3.7,0-5.6,3.2-5.6,7.2
	c0,4.2,1.9,7,5.6,7C593.5,416,595.5,413.4,595.5,409.1L595.5,409.1z M603.9,409.3c0-6.5,3.9-11,9.8-11c4.8,0,9.4,3,9.4,10.6v1.5h-15
	c0.1,4.1,2.5,6.4,6,6.4c2.3,0,4.1-1,4.9-3l3.9,0.7c-0.9,3.4-4.2,5.7-8.8,5.7C607.7,420.2,603.9,415.9,603.9,409.3z M619,407.3
	c0-3.2-2.1-5.6-5.3-5.6c-3.3,0-5.5,2.6-5.7,5.6H619z M620.4,395.5c0-0.6,0.2-1.1,0.5-1.6c0.3-0.5,0.7-0.8,1.3-1
	c0.5-0.2,1.1-0.3,1.6-0.2c0.5,0.1,1,0.4,1.4,0.8c0.4,0.4,0.7,0.9,0.8,1.4c0.1,0.5,0.1,1.1-0.2,1.6c-0.2,0.5-0.6,1-1,1.3
	c-0.5,0.3-1,0.5-1.6,0.5c-0.7,0-1.5-0.3-2-0.8C620.7,397,620.4,396.3,620.4,395.5L620.4,395.5z M625.3,395.5c0-0.4-0.1-0.8-0.4-1.2
	c-0.2-0.3-0.6-0.6-0.9-0.8c-0.4-0.2-0.8-0.2-1.2-0.1c-0.4,0.1-0.8,0.3-1.1,0.6c-0.3,0.3-0.5,0.7-0.6,1.1c-0.1,0.4,0,0.8,0.1,1.2
	c0.2,0.4,0.4,0.7,0.8,0.9c0.3,0.2,0.8,0.4,1.2,0.4c0.3,0,0.5-0.1,0.8-0.2c0.3-0.1,0.5-0.3,0.7-0.5c0.2-0.2,0.4-0.4,0.5-0.7
	C625.2,396.1,625.3,395.8,625.3,395.5L625.3,395.5z M622.2,394.2h1.3c0.1,0,0.2,0,0.3,0.1c0.1,0,0.2,0.1,0.3,0.2
	c0.1,0.1,0.1,0.2,0.2,0.3c0,0.1,0.1,0.2,0.1,0.3c0,0.2,0,0.3-0.1,0.4c-0.1,0.1-0.2,0.2-0.3,0.3l0.5,1h-0.7l-0.4-0.9h-0.5v0.9h-0.6
	V394.2z M623.3,395.4c0.1,0,0.1,0,0.2,0c0,0,0.1-0.1,0.1-0.1c0,0,0.1-0.1,0.1-0.1c0-0.1,0-0.1,0-0.2c0-0.1,0-0.1,0-0.2
	c0,0,0-0.1-0.1-0.1c0,0-0.1-0.1-0.1-0.1c0,0-0.1,0-0.1,0h-0.5v0.8H623.3z"/>
<path class="st4" d="M617.5,288.6c0-0.6,0.2-1.1,0.5-1.6c0.3-0.5,0.7-0.8,1.3-1c0.5-0.2,1.1-0.3,1.6-0.2c0.5,0.1,1,0.4,1.4,0.8
	c0.4,0.4,0.7,0.9,0.8,1.4c0.1,0.5,0.1,1.1-0.2,1.6c-0.2,0.5-0.6,1-1,1.3c-0.5,0.3-1,0.5-1.6,0.5c-0.7,0-1.5-0.3-2-0.8
	S617.5,289.4,617.5,288.6L617.5,288.6z M622.4,288.6c0-0.4-0.1-0.8-0.4-1.2c-0.2-0.3-0.6-0.6-0.9-0.8c-0.4-0.2-0.8-0.2-1.2-0.1
	c-0.4,0.1-0.8,0.3-1.1,0.6s-0.5,0.7-0.6,1.1c-0.1,0.4,0,0.8,0.1,1.2c0.2,0.4,0.4,0.7,0.8,0.9c0.3,0.2,0.8,0.4,1.2,0.4
	c0.6,0,1.1-0.2,1.5-0.6C622.2,289.7,622.4,289.2,622.4,288.6L622.4,288.6z M619.3,287.3h1.3c0.1,0,0.2,0,0.3,0.1
	c0.1,0,0.2,0.1,0.3,0.2c0.1,0.1,0.1,0.2,0.2,0.3s0.1,0.2,0.1,0.3c0,0.2,0,0.3-0.1,0.4c-0.1,0.1-0.2,0.2-0.3,0.3l0.5,1h-0.7l-0.4-0.9
	h-0.5v0.9h-0.6L619.3,287.3z M620.4,288.6c0.1,0,0.1,0,0.2,0c0,0,0.1-0.1,0.1-0.1c0,0,0.1-0.1,0.1-0.1c0-0.1,0-0.1,0-0.2
	c0-0.1,0-0.1,0-0.1c0,0,0-0.1-0.1-0.1c0,0-0.1-0.1-0.1-0.1c0,0-0.1,0-0.1,0h-0.5v0.8H620.4z"/>
</svg>
